<?xml version="1.0" standalone="no"?>
<!DOCTYPE svg PUBLIC "-//W3C//DTD SVG 20010904//EN"
 "http://www.w3.org/TR/2001/REC-SVG-20010904/DTD/svg10.dtd">
<svg version="1.0" xmlns="http://www.w3.org/2000/svg"
 width="744.000000pt" height="1052.000000pt" viewBox="0 0 744.000000 1052.000000"
 preserveAspectRatio="xMidYMid meet">

<g transform="translate(0.000000,1052.000000) scale(0.100000,-0.100000)"
fill="#fff" stroke="none">
<path d="M3580 8650 c0 -39 35 -60 56 -33 7 10 14 23 14 29 0 17 -23 34 -47
34 -19 0 -23 -5 -23 -30z"/>
<path d="M4510 8662 c0 -18 18 -42 32 -42 4 0 12 10 19 21 9 17 8 23 -2 30
-24 15 -49 10 -49 -9z"/>
<path d="M4600 8610 c0 -5 5 -10 10 -10 6 0 10 5 10 10 0 6 -4 10 -10 10 -5 0
-10 -4 -10 -10z"/>
<path d="M3690 8585 c0 -8 7 -15 15 -15 8 0 15 7 15 15 0 8 -7 15 -15 15 -8 0
-15 -7 -15 -15z"/>
<path d="M4824 8545 c-4 -9 -2 -21 4 -27 16 -16 47 -5 47 17 0 26 -42 34 -51
10z"/>
<path d="M4445 8530 c-4 -6 1 -18 11 -25 15 -12 16 -16 6 -23 -8 -5 -19 -20
-26 -33 -6 -13 -25 -33 -42 -44 l-30 -20 20 -22 c34 -33 66 -46 105 -39 25 4
44 1 59 -9 18 -14 21 -25 20 -88 -1 -66 -3 -75 -31 -104 -24 -26 -39 -33 -69
-33 -31 0 -38 -4 -38 -20 0 -15 -7 -20 -26 -20 -15 0 -32 7 -38 15 -18 25 -49
7 -94 -56 -24 -32 -50 -59 -58 -59 -8 0 -37 -11 -64 -25 -27 -14 -58 -25 -68
-25 -21 0 -42 -18 -42 -37 0 -7 9 -13 19 -13 32 0 172 79 208 118 18 19 37 32
41 28 4 -4 -1 -14 -11 -21 -22 -16 -17 -43 13 -70 19 -17 21 -16 55 11 20 16
46 40 59 53 13 13 31 31 40 40 10 9 38 37 63 64 26 26 50 47 54 47 4 0 9 -12
11 -27 2 -23 9 -29 32 -31 20 -3 32 2 39 14 9 15 11 15 28 -7 22 -29 33 -20
24 19 -5 23 -13 31 -38 36 l-32 7 45 40 c25 22 57 51 72 65 15 13 42 27 60 31
64 12 93 67 46 88 -13 6 -30 25 -39 42 -28 56 -38 63 -89 63 -57 0 -100 -29
-100 -66 0 -31 -5 -30 -35 4 -18 20 -23 35 -20 57 8 46 -17 70 -68 68 -23 0
-47 3 -54 9 -7 6 -14 5 -18 -2z"/>
<path d="M3992 8521 c-8 -4 -12 -19 -10 -32 4 -29 48 -39 67 -15 10 11 8 18
-10 35 -25 23 -28 24 -47 12z"/>
<path d="M3299 8466 c-16 -33 -5 -58 23 -54 19 2 23 9 23 38 0 44 -29 54 -46
16z"/>
<path d="M3487 8483 c-12 -11 -8 -23 8 -23 26 0 30 -30 6 -46 -11 -8 -21 -23
-21 -33 0 -20 -46 -58 -93 -79 -23 -10 -32 -9 -52 4 -14 9 -40 14 -66 12 -50
-3 -65 -23 -74 -100 -6 -43 -11 -51 -51 -79 -45 -30 -57 -32 -111 -12 -12 4
-11 0 7 -15 l25 -21 -59 6 c-48 5 -60 3 -68 -10 -8 -16 -11 -16 -35 1 -26 16
-27 16 -20 -1 9 -24 -10 -65 -50 -107 -31 -34 -32 -37 -17 -58 18 -25 46 -29
64 -7 7 8 23 15 36 15 25 0 98 36 140 69 15 12 39 21 54 21 25 0 28 -4 33 -49
3 -27 17 -72 31 -100 31 -61 31 -61 6 -61 -25 0 -46 -46 -30 -65 8 -9 7 -14
-3 -18 -8 -3 -18 7 -26 24 -8 18 -19 28 -29 27 -9 -2 -18 5 -20 15 -3 15 0 18
16 13 21 -7 39 18 22 29 -6 4 -10 16 -10 28 0 14 -3 18 -8 10 -4 -6 -21 -17
-37 -24 -23 -9 -26 -13 -12 -16 22 -6 22 -27 0 -99 -13 -39 -24 -59 -40 -65
-29 -11 -40 -47 -18 -63 14 -10 15 -16 4 -40 -11 -24 -17 -27 -43 -22 -17 4
-42 18 -56 31 -30 29 -30 29 -67 13 -31 -13 -38 -15 -55 -17 -7 -1 -3 -6 10
-12 17 -6 22 -14 17 -28 -3 -10 1 -23 10 -31 22 -18 19 -30 -7 -30 -27 0 -88
-35 -88 -50 0 -5 -7 -10 -16 -10 -12 0 -15 9 -12 38 3 32 0 37 -20 40 -13 2
-33 19 -46 40 -13 20 -35 48 -50 61 -30 29 -33 41 -8 41 22 0 64 29 57 39 -2
5 -15 6 -29 4 -33 -7 -50 25 -37 71 7 27 6 34 -4 30 -9 -4 -13 5 -12 31 1 24
-6 42 -20 57 l-21 21 19 35 20 35 -22 23 -22 24 40 0 c67 0 93 50 52 99 -17
21 -26 23 -72 19 l-52 -5 -28 57 c-23 48 -34 61 -70 76 -56 24 -62 23 -62 -5
0 -21 -7 -26 -53 -36 -29 -7 -61 -20 -73 -30 -19 -18 -21 -18 -72 4 -69 30
-124 43 -150 35 -25 -8 -56 -43 -57 -63 0 -8 -5 -42 -11 -75 -10 -59 -12 -62
-68 -99 -47 -30 -63 -36 -90 -31 -17 4 -34 11 -37 15 -3 5 -13 9 -22 9 -15 -1
-15 -2 2 -15 10 -8 23 -16 29 -18 6 -2 7 -9 3 -15 -5 -9 -14 -8 -36 3 -33 17
-89 11 -108 -13 -11 -15 -15 -15 -41 1 -36 21 -42 21 -35 2 13 -34 -7 -85 -51
-129 -51 -50 -54 -64 -23 -93 23 -21 57 -18 73 6 3 6 22 11 40 11 36 0 153 56
191 91 13 12 35 19 61 19 l40 0 6 -54 c3 -30 19 -80 36 -114 36 -71 40 -103
13 -95 -10 2 -23 -2 -29 -9 -14 -18 -22 -67 -12 -74 5 -3 9 -14 9 -25 0 -30
-34 -20 -38 11 -5 34 -23 55 -47 55 -13 0 -20 7 -20 20 0 15 6 19 23 17 29 -4
40 23 18 47 -9 10 -16 26 -17 37 0 16 -2 15 -10 -5 -6 -16 -15 -22 -29 -18
-10 3 -25 -2 -31 -10 -10 -11 -8 -15 9 -20 14 -3 22 -13 22 -27 -1 -27 -24
-113 -33 -122 -4 -4 -7 -25 -7 -46 0 -21 -8 -56 -19 -76 -44 -87 -53 -102 -64
-102 -30 0 -76 20 -102 44 -32 30 -54 32 -96 11 -16 -9 -33 -13 -38 -11 -5 3
-14 -1 -21 -9 -11 -13 -8 -15 15 -15 24 0 26 -3 21 -26 -6 -21 1 -33 38 -71
l45 -45 27 31 c33 39 46 39 42 0 -2 -20 -11 -35 -28 -43 -14 -7 -40 -21 -58
-30 -17 -10 -36 -15 -41 -12 -4 3 -6 -5 -4 -19 5 -21 1 -24 -41 -30 -28 -5
-46 -12 -46 -20 0 -7 -6 -15 -12 -17 -7 -3 -13 -15 -13 -28 0 -15 -10 -28 -32
-40 -18 -9 -46 -32 -63 -50 -23 -25 -33 -30 -44 -21 -16 13 -23 6 -55 -54 -31
-60 -56 -85 -85 -85 -14 0 -26 -4 -26 -10 0 -17 -82 -33 -112 -22 -34 12 -52
-6 -23 -22 38 -22 65 -56 65 -81 0 -14 5 -34 12 -45 10 -16 8 -25 -18 -57 -38
-46 -55 -51 -94 -23 l-30 21 0 -28 c0 -16 -5 -34 -10 -39 -7 -7 -4 -29 9 -68
l19 -57 -34 -22 c-41 -27 -57 -66 -43 -107 14 -39 44 -48 73 -21 12 12 25 21
28 21 10 0 19 -51 12 -72 -6 -20 -6 -20 -25 1 -11 12 -26 21 -33 21 -24 0 -56
-40 -56 -70 0 -18 -5 -30 -13 -30 -8 0 -24 -23 -37 -51 -20 -42 -22 -52 -10
-59 9 -6 20 -4 31 6 8 7 21 14 28 14 7 0 31 15 54 34 52 41 81 49 101 27 13
-14 12 -19 -10 -44 -19 -23 -27 -26 -43 -17 -27 14 -30 13 -24 -9 7 -29 -14
-85 -42 -111 -14 -13 -25 -34 -25 -47 0 -19 5 -23 33 -23 21 0 41 8 52 20 10
11 26 20 37 20 21 0 23 -11 6 -28 -18 -18 -1 -27 28 -13 22 10 24 14 13 27
-10 12 -9 18 3 31 27 26 41 6 36 -53 -3 -29 -1 -51 4 -48 5 3 22 2 39 -1 31
-7 31 -8 24 -54 -3 -25 -10 -77 -15 -114 -4 -38 -13 -74 -19 -80 -6 -6 -11
-19 -11 -28 0 -34 -52 -32 -102 5 l-28 20 -47 -25 c-41 -20 -44 -24 -25 -27
17 -3 21 -8 17 -22 -4 -13 5 -27 32 -49 21 -17 40 -31 44 -31 3 0 11 11 17 25
15 33 34 32 30 -2 -3 -24 -24 -44 -76 -69 -6 -3 -12 -15 -12 -25 0 -14 -7 -19
-30 -19 -20 0 -30 -5 -30 -15 0 -7 -7 -18 -16 -23 -12 -7 -13 -11 -5 -17 14
-8 -75 -100 -98 -100 -7 0 -25 -25 -40 -55 -14 -30 -36 -60 -47 -65 -12 -6
-29 -17 -38 -24 -9 -8 -34 -14 -56 -15 -45 -1 -52 -12 -15 -26 24 -9 55 -65
55 -101 0 -10 -11 -30 -24 -45 -23 -27 -24 -27 -48 -12 -26 17 -26 17 -32 -20
-4 -26 0 -48 13 -74 l18 -37 -30 -30 c-27 -27 -29 -33 -21 -63 12 -40 47 -50
64 -18 16 29 30 16 30 -28 -1 -30 -3 -34 -11 -19 -22 37 -69 13 -69 -35 0 -15
-4 -28 -8 -28 -8 0 -32 -65 -32 -84 0 -18 33 -1 78 39 50 45 80 56 86 33 21
-75 34 -106 54 -130 17 -21 23 -37 20 -59 -4 -22 -1 -29 9 -25 39 15 146 26
158 16 7 -5 15 -36 19 -67 4 -35 13 -61 24 -69 25 -18 32 -8 32 47 0 44 -3 51
-25 59 -14 5 -25 14 -25 19 0 11 86 25 100 16 5 -3 10 -2 10 3 0 5 14 12 32
16 17 3 40 14 50 22 14 13 23 15 45 6 16 -6 39 -9 53 -8 14 2 38 4 53 5 20 1
33 10 45 31 10 17 28 32 44 35 36 8 55 -3 32 -19 -12 -9 -14 -15 -6 -20 7 -4
16 -5 20 -2 5 3 7 -16 5 -43 -4 -44 -1 -50 37 -92 29 -32 36 -45 25 -47 -8 -2
-15 -14 -15 -27 0 -30 49 -71 100 -85 24 -6 40 -17 40 -26 0 -13 -3 -12 -24 1
-21 14 -25 14 -46 -3 -18 -14 -22 -25 -16 -45 6 -24 11 -27 45 -27 55 0 71 -8
71 -37 0 -29 15 -61 41 -86 23 -21 25 -65 4 -73 -20 -8 -19 -24 0 -24 9 0 19
-8 22 -17 11 -29 45 -62 58 -57 7 3 16 1 20 -5 3 -6 1 -11 -5 -11 -6 0 -8 -4
-5 -10 3 -5 17 -10 30 -10 16 0 25 -7 29 -24 9 -38 -2 -53 -51 -68 -29 -8 -49
-21 -56 -35 -11 -24 -1 -109 14 -118 5 -4 9 -15 9 -25 0 -12 8 -20 23 -22 13
-2 33 -21 52 -49 34 -53 70 -69 128 -55 26 6 42 17 52 36 8 15 28 33 44 40 34
13 65 55 58 75 -7 18 -69 27 -101 15 -23 -9 -26 -7 -26 14 0 24 40 53 58 42
11 -6 62 15 62 27 0 4 -9 7 -20 7 -25 0 -26 15 -2 32 11 7 24 23 31 36 6 12
20 22 30 22 11 0 22 7 25 17 5 13 12 7 34 -25 14 -23 35 -45 45 -48 12 -4 16
-12 12 -25 -7 -22 10 -26 19 -4 3 8 18 15 34 15 23 0 32 -7 45 -36 14 -27 22
-34 35 -29 38 16 49 15 73 -4 l24 -20 -25 -11 c-23 -10 -23 -10 9 -5 18 3 37
5 42 5 4 0 9 10 11 23 3 21 7 22 73 18 79 -4 102 -12 116 -44 5 -12 17 -35 28
-52 10 -16 16 -37 13 -46 -8 -32 14 -28 26 4 7 18 27 41 44 52 18 12 36 35 43
55 11 32 15 35 46 33 19 -1 53 -2 77 -3 l43 -1 -3 -36 c-3 -32 -9 -40 -53 -65
-27 -16 -63 -35 -78 -41 -30 -12 -38 -32 -42 -100 -1 -23 -6 -56 -10 -73 -6
-27 -4 -33 15 -39 23 -7 44 -50 35 -72 -2 -8 -9 -11 -15 -8 -5 3 -10 1 -10 -4
0 -6 7 -11 15 -11 8 0 15 -9 15 -21 0 -11 14 -45 30 -75 24 -43 28 -58 20 -73
-13 -25 -13 -27 6 -45 9 -9 32 -16 55 -16 50 0 51 -20 4 -56 -58 -44 -35 -88
26 -52 18 11 23 10 26 0 4 -9 8 -10 18 -2 9 8 15 8 20 0 3 -5 20 -10 36 -10
17 0 28 -4 24 -10 -9 -14 6 -83 16 -73 4 4 9 26 11 48 3 40 3 40 58 50 40 8
63 20 86 43 38 39 57 40 72 7 18 -38 62 -26 62 17 0 12 8 18 24 18 14 0 28 4
31 10 3 5 17 10 30 10 13 0 27 5 31 11 4 7 23 9 49 6 23 -4 46 -2 52 4 9 9 30
16 57 18 4 1 5 17 2 36 -8 38 10 48 37 21 8 -9 30 -13 56 -12 30 2 51 -4 67
-17 16 -12 33 -17 48 -13 15 4 28 0 36 -9 7 -8 10 -16 6 -16 -3 -1 -10 -2 -15
-3 -19 -2 -23 -16 -7 -22 9 -3 13 -11 9 -17 -12 -20 -15 -95 -4 -102 6 -3 11
-15 11 -26 0 -29 32 -20 41 11 4 14 7 46 8 72 1 26 6 50 11 53 6 3 10 2 10 -2
0 -13 72 -2 97 14 18 12 25 12 42 1 16 -10 23 -10 33 0 18 18 53 15 73 -8 10
-11 25 -20 33 -20 11 0 8 8 -11 28 l-26 28 22 14 c12 8 27 17 32 20 29 15 95
64 95 71 0 10 26 24 63 33 l29 7 -30 -38 c-37 -47 -44 -78 -31 -129 15 -53 36
-74 74 -74 33 0 75 31 75 55 0 8 10 21 22 29 12 9 17 16 10 16 -6 0 -12 6 -12
13 0 22 -29 75 -44 80 -22 9 -43 61 -38 96 3 24 1 31 -12 31 -9 0 -21 -9 -28
-20 -16 -25 -30 -25 -45 -1 -10 16 -9 20 10 25 47 12 81 6 110 -21 l30 -28
-18 28 c-24 38 -12 45 25 13 35 -29 43 -31 72 -15 19 10 20 9 16 -15 -7 -33
25 -83 67 -108 28 -16 34 -16 59 -2 26 13 31 13 47 -2 22 -20 66 -21 84 -3 15
15 21 88 10 130 -5 20 -2 28 11 33 23 9 31 -1 42 -51 6 -27 6 -45 -1 -52 -7
-7 -7 -14 1 -23 8 -11 6 -17 -8 -25 -21 -14 -17 -48 6 -57 21 -8 17 -33 -6
-39 -15 -4 -20 -14 -20 -39 0 -18 -4 -28 -8 -23 -16 22 -54 37 -65 26 -6 -6
-21 -11 -33 -11 -29 0 -78 -42 -94 -79 -12 -29 -13 -30 -71 -25 -57 4 -59 4
-59 -21 0 -22 -2 -24 -25 -13 -55 25 -102 -54 -57 -95 21 -19 49 -22 72 -8 23
16 33 1 13 -21 -19 -21 -23 -102 -6 -119 18 -18 47 25 58 89 7 45 38 92 60 92
8 0 18 7 22 15 8 13 14 12 48 -5 32 -17 44 -18 61 -9 17 8 28 7 53 -6 22 -11
43 -14 64 -9 43 9 56 21 78 71 18 43 49 59 49 26 0 -12 3 -14 8 -6 4 6 19 14
34 18 35 9 48 -13 20 -34 -15 -11 -20 -23 -16 -38 7 -24 38 -31 49 -12 4 6 13
8 21 5 15 -6 17 0 18 54 1 45 31 50 31 5 0 -27 3 -30 30 -30 23 0 31 5 33 21
3 23 27 34 74 34 15 0 30 5 33 10 11 18 35 11 35 -10 0 -11 7 -20 15 -20 18 0
19 5 3 30 -9 15 -9 24 0 42 12 22 13 38 10 103 -1 17 1 44 5 61 6 23 3 36 -11
54 l-18 23 -37 -33 c-20 -18 -37 -41 -37 -51 0 -24 -2 -24 -42 1 -35 21 -68
26 -68 10 0 -5 -7 -10 -15 -10 -11 0 -15 -11 -15 -38 0 -38 -19 -92 -32 -92
-9 0 -29 35 -45 80 -12 32 -11 37 7 52 11 9 20 24 20 33 0 23 -27 72 -42 77
-8 3 -5 9 8 16 18 10 26 8 47 -14 24 -23 26 -24 36 -7 6 10 11 12 11 6 0 -18
20 -16 20 2 0 8 5 15 10 15 6 0 10 5 10 10 0 6 -20 8 -55 4 -33 -4 -55 -3 -55
3 0 24 32 113 40 113 6 0 10 11 10 24 0 17 -7 26 -25 30 -30 8 -32 19 -5 44
12 11 23 36 27 56 5 31 3 36 -14 36 -15 0 -25 -12 -37 -44 -20 -53 -37 -61
-70 -35 -22 17 -26 18 -26 5 0 -9 -7 -16 -16 -16 -9 0 -14 6 -11 13 3 7 -10
35 -29 62 -23 34 -30 53 -23 61 7 8 6 13 -2 16 -8 3 -10 11 -5 23 5 14 9 16
18 7 18 -18 96 -14 129 5 26 16 29 16 47 0 21 -19 48 -22 57 -7 14 22 54 10
82 -25 15 -19 34 -35 41 -35 18 0 15 8 -14 43 l-25 30 28 23 c15 13 36 23 45
24 24 0 108 48 136 76 13 13 26 24 30 25 38 6 82 4 82 -3 0 -5 -11 -14 -25
-20 -14 -6 -25 -16 -25 -21 0 -6 -10 -22 -22 -35 -20 -21 -23 -33 -21 -100 3
-94 23 -122 88 -122 47 0 79 19 100 61 10 18 23 29 37 29 17 0 19 3 10 12 -7
7 -12 22 -12 34 0 13 -4 26 -10 29 -5 3 -10 15 -10 27 0 11 -11 29 -25 40 -31
24 -50 90 -35 119 7 11 9 27 6 35 -8 22 -52 17 -70 -9 l-15 -22 -21 24 c-11
13 -20 27 -20 31 0 4 26 10 58 13 55 7 58 6 88 -26 17 -19 33 -40 36 -48 3 -8
9 -11 13 -7 4 4 0 17 -9 30 -20 28 -20 48 -1 48 8 0 15 -6 15 -14 0 -27 58
-59 96 -53 35 6 41 -1 25 -31 -12 -23 22 -95 61 -127 32 -27 67 -32 100 -14
18 10 25 8 38 -7 39 -46 108 -52 128 -11 21 42 29 118 17 154 -5 16 -2 24 13
32 36 19 49 4 55 -62 3 -39 2 -64 -5 -68 -6 -4 -8 -18 -5 -31 5 -18 1 -26 -16
-33 -30 -14 -34 -50 -7 -65 31 -17 23 -54 -12 -58 -25 -3 -28 -7 -28 -43 0
-21 -4 -39 -10 -39 -5 0 -10 7 -10 15 0 8 -7 15 -15 15 -7 0 -18 8 -24 17 -8
14 -13 15 -33 6 -12 -6 -43 -14 -68 -17 -45 -5 -72 -27 -120 -96 -15 -22 -16
-22 -79 -6 -82 21 -81 21 -81 -14 0 -33 -6 -36 -34 -15 -30 22 -62 18 -85 -11
-25 -32 -27 -71 -5 -103 15 -21 23 -23 70 -19 38 3 54 1 54 -8 0 -6 -6 -14
-14 -17 -19 -7 -46 -65 -40 -82 3 -8 6 -29 7 -47 2 -37 33 -52 44 -21 3 10 11
25 18 33 7 8 18 37 26 64 14 50 74 116 104 116 8 0 15 7 15 15 0 8 2 15 3 15
15 0 75 -37 89 -54 15 -18 19 -19 43 -6 24 13 31 12 68 -8 28 -14 60 -22 93
-22 57 0 79 17 111 85 22 49 47 56 61 18 7 -17 11 -21 11 -10 1 13 10 17 35
17 53 0 71 -42 23 -51 -10 -2 -18 -7 -18 -11 1 -5 1 -19 1 -33 0 -31 23 -42
55 -25 13 7 28 9 34 6 15 -10 34 32 26 61 -6 27 9 53 31 53 16 0 19 -46 4 -55
-19 -12 11 -35 45 -35 26 0 34 5 39 24 7 28 55 41 110 31 20 -4 36 -2 40 4 13
21 36 12 36 -14 0 -18 5 -25 20 -25 11 0 20 7 20 15 0 8 -4 15 -10 15 -15 0
-12 41 4 59 22 25 34 82 23 114 -7 22 -4 38 13 75 24 50 20 85 -11 105 -22 14
-98 -36 -111 -74 -12 -35 -15 -36 -48 -4 -29 28 -100 46 -100 26 0 -8 -8 -10
-20 -6 -18 6 -20 2 -20 -39 0 -59 -36 -132 -56 -115 -8 6 -14 17 -14 24 0 8
-6 15 -12 18 -7 2 -14 17 -15 33 -1 16 -4 43 -5 59 -2 23 2 32 20 40 17 8 22
18 22 47 0 49 -15 85 -37 90 -14 3 -12 7 13 21 30 15 64 69 64 100 0 8 14 30
31 48 36 39 33 75 -6 85 -34 8 -31 25 9 61 52 45 62 113 17 113 -13 0 -27 -17
-46 -55 -29 -61 -57 -72 -90 -35 -23 26 -32 25 -41 -2 l-7 -22 -18 23 c-11 13
-19 34 -19 47 0 13 -12 47 -27 74 -24 43 -26 52 -13 61 11 8 12 12 3 16 -7 2
-13 16 -13 29 0 15 -6 24 -16 24 -28 0 -72 33 -79 57 -3 13 -16 33 -29 44 -16
14 -22 27 -18 42 10 38 27 62 45 63 58 3 59 4 55 28 -9 46 7 52 52 22 34 -22
44 -25 56 -15 12 10 23 8 58 -9 53 -27 98 -21 127 17 11 14 28 37 39 51 l19
25 10 -25 c5 -14 10 -19 10 -12 1 9 12 12 33 10 37 -4 50 -27 19 -35 -14 -4
-21 -13 -21 -29 0 -28 24 -42 44 -25 7 6 16 8 19 4 14 -13 37 20 34 50 -1 23
3 32 16 35 16 3 18 -2 15 -30 -3 -30 0 -33 25 -36 22 -3 30 1 34 16 5 22 44
36 73 27 11 -3 29 -1 40 5 18 10 22 8 27 -9 3 -12 12 -21 19 -21 17 0 18 12 3
27 -9 9 -8 19 6 39 9 15 18 50 20 78 1 28 8 65 14 83 13 34 2 73 -21 73 -19 0
-76 -49 -83 -70 -6 -20 -7 -20 -37 5 -30 25 -78 34 -78 14 0 -5 -4 -8 -9 -5
-10 6 -21 -16 -21 -43 0 -26 -24 -71 -37 -71 -7 0 -13 6 -13 14 0 8 -4 16 -9
18 -4 2 -11 24 -15 50 -6 42 -5 47 15 53 19 6 21 12 16 48 -3 23 -13 47 -22
53 -15 11 -15 13 5 24 12 6 32 36 45 65 13 29 29 56 34 60 19 11 12 47 -9 52
-28 7 -25 23 10 56 35 34 41 77 10 77 -13 0 -26 -13 -37 -37 -20 -42 -51 -54
-73 -28 -16 19 -30 19 -30 0 0 -9 -6 -12 -15 -9 -8 4 -15 18 -15 31 0 14 -9
41 -21 60 -12 18 -19 43 -16 53 3 11 1 20 -3 20 -4 0 -6 8 -3 19 3 14 -2 20
-26 24 -20 4 -35 16 -46 37 -22 43 -55 62 -101 57 -45 -5 -94 -53 -94 -92 0
-14 -4 -25 -10 -25 -5 0 -10 7 -10 15 0 32 -35 84 -70 104 -33 18 -39 19 -56
6 -27 -21 -30 -19 -26 18 3 25 -3 41 -23 65 -19 23 -25 39 -21 55 4 15 -2 30
-20 48 -24 25 -24 26 -4 44 18 16 20 16 26 1 3 -9 11 -16 16 -16 5 0 24 -16
41 -35 24 -28 38 -35 67 -35 24 0 43 -7 55 -20 9 -10 34 -25 54 -31 38 -13 76
-35 100 -57 19 -19 25 -8 22 43 -1 35 2 45 14 45 11 0 15 -10 15 -35 0 -34 7
-40 40 -35 35 4 33 21 -8 56 -32 27 -40 39 -33 52 12 24 22 98 14 105 -3 4 -8
24 -10 45 -5 49 -31 98 -62 114 -14 7 -36 23 -49 36 -16 17 -31 22 -55 20 -30
-3 -32 -5 -35 -48 -2 -25 -9 -52 -17 -60 -21 -25 -29 -62 -14 -70 10 -7 10
-19 0 -64 -12 -56 -26 -70 -38 -40 -4 11 -13 13 -35 9 -26 -6 -29 -5 -24 11
17 58 17 74 0 105 -10 19 -17 42 -15 52 3 20 -22 53 -51 68 -13 7 -23 4 -39
-12 l-21 -21 -50 23 c-58 27 -64 35 -47 55 10 12 9 18 -4 31 -13 13 -19 14
-31 3 -9 -7 -16 -19 -16 -26 0 -18 -30 -18 -52 0 -24 18 -23 63 1 76 13 6 17
17 14 30 -7 25 19 56 53 64 13 4 24 13 24 21 0 19 -12 19 -55 1 -34 -15 -45
-12 -45 10 0 12 61 30 92 26 11 -1 15 3 12 12 -3 8 4 23 16 34 28 26 18 43
-20 35 -24 -4 -30 -2 -30 12 0 12 -5 15 -16 11 -9 -3 -18 -6 -20 -6 -3 0 -9
-12 -15 -27 -10 -26 -12 -27 -23 -10 -10 13 -28 17 -78 17 -72 0 -92 12 -86
52 2 16 14 27 38 35 19 7 30 12 24 12 -6 1 -16 11 -23 24 -16 30 -61 57 -94
57 -45 0 -59 12 -89 79 -16 36 -52 105 -79 153 l-50 87 31 42 c32 45 38 69 17
69 -19 0 -57 -29 -57 -45 0 -32 -20 -22 -55 27 -21 29 -61 82 -90 118 -43 52
-52 70 -48 92 3 17 -3 45 -17 73 -18 38 -20 48 -9 61 11 13 10 15 -2 13 -7 -2
-28 11 -46 29 -29 30 -30 33 -13 42 10 6 28 10 39 10 28 0 67 38 53 52 -7 7
-31 -2 -76 -31 -36 -22 -77 -41 -91 -41 -38 0 -75 42 -75 85 0 23 -5 35 -14
35 -7 0 -18 6 -24 13 -8 9 -31 12 -78 10 l-67 -4 6 42 c4 31 2 38 -6 30 -18
-18 -23 -13 -37 39 -15 56 -14 54 -41 39 -17 -9 -21 -7 -26 10 -3 12 -10 21
-15 21 -5 0 -7 13 -3 30 5 25 1 35 -24 61 -29 29 -32 29 -53 15 -30 -21 -65
-22 -49 -2 8 10 9 16 1 21 -10 6 -3 55 9 65 10 9 12 80 2 80 -17 0 -25 -23
-22 -64 3 -38 2 -38 -26 -32 -15 4 -35 15 -43 25 -39 45 -47 45 -76 1 -27 -40
-29 -42 -78 -40 -70 3 -76 2 -76 -14 0 -8 -8 -24 -18 -36 -17 -22 -20 -22 -49
-6 -17 8 -33 21 -35 28 -4 10 -9 10 -19 2 -18 -13 -89 -34 -118 -34 -13 0 -38
18 -61 42 -37 40 -40 42 -56 26 -14 -14 -15 -20 -4 -32 11 -14 8 -16 -18 -16
-16 0 -35 7 -42 15 -9 11 -22 14 -41 10 -53 -12 -47 14 28 114 37 49 40 61 18
61 -19 0 -19 9 2 32 9 10 19 35 22 55 4 26 12 39 24 41 16 3 18 -2 17 -35 -4
-73 -4 -72 46 -71 38 0 47 4 55 24 38 101 71 144 110 144 9 0 37 22 63 50 40
43 45 53 36 71 -9 16 -19 20 -53 17 -40 -3 -43 -6 -73 -61 -42 -79 -60 -94
-122 -100 l-53 -6 7 36 7 36 -49 -6 c-27 -3 -53 -12 -59 -21 -21 -27 -37 -19
-30 14 6 26 4 30 -14 30 -11 0 -25 9 -31 21 -7 11 -28 39 -48 61 l-37 41 32
-7 c25 -6 36 -3 52 13 l20 20 3 -22 c2 -14 11 -23 26 -25 25 -4 38 19 26 46
-4 9 -8 24 -8 32 -1 9 -13 16 -31 18 -16 2 -34 8 -39 13 -13 12 45 72 94 95
22 11 41 28 44 41 6 20 60 48 82 41 21 -5 55 16 69 42 21 41 19 47 -19 65 -32
15 -56 50 -56 80 0 26 -64 65 -107 65 -46 0 -109 -23 -115 -42 -3 -8 -22 -13
-47 -14 l-42 0 2 40 c3 46 -17 86 -43 86 -9 0 -18 5 -20 10 -2 7 -14 7 -36 -1
-25 -8 -36 -9 -45 0 -12 12 -30 14 -40 4z m253 -203 c0 -5 -4 -10 -10 -10 -5
0 -10 5 -10 10 0 6 5 10 10 10 6 0 10 -4 10 -10z m-1670 -784 c0 -22 -48 -47
-83 -44 l-32 3 45 27 c50 31 70 35 70 14z m840 -29 c0 -24 -34 -52 -51 -41 -6
4 0 18 17 35 33 35 34 35 34 6z m-2090 -1263 c0 -17 -26 -19 -36 -3 -7 12 15
31 28 23 4 -3 8 -12 8 -20z m304 -563 c3 -5 -3 -11 -14 -14 -26 -7 -36 -35
-22 -58 16 -24 15 -39 -1 -39 -7 0 -18 14 -24 31 -10 25 -16 29 -32 24 -17 -5
-21 -2 -21 14 0 14 5 19 16 14 10 -4 17 1 21 16 4 16 13 21 39 21 18 0 35 -4
38 -9z m156 -38 c0 -10 -32 -43 -42 -43 -12 0 -10 24 4 38 13 13 38 16 38 5z
m190 -633 c0 -5 -5 -10 -11 -10 -5 0 -7 5 -4 10 3 6 8 10 11 10 2 0 4 -4 4
-10z m4909 -166 c7 -6 -10 -94 -19 -94 -13 0 -17 10 -25 64 -7 47 -7 48 16 41
13 -4 26 -9 28 -11z m-195 -65 c-6 -10 -54 -12 -54 -3 0 4 8 13 17 20 19 13
48 0 37 -17z m-4620 -45 c18 -18 21 -60 6 -99 -13 -35 -31 -22 -30 23 1 20 -2
49 -6 65 -7 31 6 36 30 11z m4565 -81 c17 -21 31 -32 31 -26 0 7 -4 15 -10 18
-5 3 -10 15 -10 27 0 18 4 16 30 -12 25 -26 36 -31 59 -27 27 6 28 5 27 -33 0
-32 6 -46 34 -75 32 -33 39 -36 74 -30 29 4 41 2 51 -11 13 -18 71 -22 87 -6
15 15 28 84 22 118 -4 24 -2 33 12 38 9 4 21 3 24 -1 12 -13 19 -103 8 -103
-6 0 -8 -9 -5 -21 3 -12 0 -22 -9 -26 -16 -6 -20 -53 -4 -53 18 0 11 -42 -9
-47 -11 -3 -21 -17 -25 -35 l-6 -31 -26 28 c-19 20 -28 25 -37 16 -6 -6 -27
-11 -46 -11 -28 0 -42 -8 -76 -46 -36 -38 -46 -44 -68 -38 -30 7 -34 26 -17
84 8 29 7 37 -6 47 -9 6 -13 16 -10 22 4 5 2 12 -4 16 -5 3 -10 23 -10 43 0
50 -61 136 -92 130 -8 -2 -14 10 -16 30 -3 27 -7 32 -30 33 -15 0 -36 4 -47 9
-15 6 -9 9 27 9 42 1 50 -3 77 -36z m266 16 c10 -15 -1 -23 -20 -15 -9 3 -13
10 -10 16 8 13 22 13 30 -1z m-4947 -128 c3 -8 -1 -12 -9 -9 -7 2 -15 10 -17
17 -3 8 1 12 9 9 7 -2 15 -10 17 -17z m-1010 -13 c-6 -18 -28 -21 -28 -4 0 9
7 16 16 16 9 0 14 -5 12 -12z m5486 -15 c-18 -36 -18 -69 0 -76 11 -5 12 -15
5 -49 -20 -90 -49 -126 -64 -79 -5 17 -10 18 -35 8 -35 -13 -49 -3 -32 23 7
11 12 33 12 50 0 23 4 30 20 30 25 0 25 12 0 35 -19 17 -19 19 -4 37 10 10 27
18 38 18 12 0 30 7 40 15 30 22 36 18 20 -12z m733 -95 c15 -34 3 -56 -46 -83
-45 -26 -72 -25 -46 1 8 9 15 22 15 30 0 8 12 19 26 24 19 8 24 15 19 30 -9
28 19 26 32 -2z m-935 -66 c2 -4 31 -34 65 -65 52 -47 69 -57 99 -57 22 0 47
-9 68 -25 18 -13 50 -31 72 -39 21 -7 56 -24 77 -36 35 -21 37 -25 31 -54 -9
-41 -12 -46 -29 -40 -8 3 -33 -8 -54 -26 -30 -23 -42 -41 -46 -68 -11 -62 -16
-70 -28 -42 -6 14 -19 44 -29 68 -12 27 -32 51 -58 67 -45 29 -72 32 -90 10
-7 -8 -19 -15 -27 -15 -13 0 -13 3 -3 15 18 22 5 71 -32 117 -26 34 -30 43
-20 59 15 23 7 43 -24 64 -28 18 -30 32 -7 57 17 19 29 23 35 10z m1105 -118
c-3 -3 -12 -4 -19 -1 -8 3 -5 6 6 6 11 1 17 -2 13 -5z m-5404 -70 c-23 -18
-64 -36 -70 -30 -10 10 19 46 42 52 14 3 25 11 25 18 0 6 5 3 11 -7 8 -14 7
-22 -8 -33z m32 -64 c7 0 20 -12 30 -26 16 -25 16 -27 -9 -53 -14 -15 -26 -39
-26 -53 0 -38 -10 -58 -29 -58 -26 0 -83 40 -78 54 3 7 1 19 -3 26 -6 10 0 19
20 32 20 11 28 23 24 33 -8 20 25 58 44 50 7 -3 20 -5 27 -5z m4525 -429 c-8
-99 -42 -93 -55 10 l-7 55 34 0 33 0 -5 -65z m-252 -3 c16 -16 15 -26 -5 -36
-11 -6 -28 -6 -43 0 l-25 9 25 19 c30 23 32 24 48 8z m281 -172 c8 -10 9 -16
2 -21 -13 -7 -51 12 -51 25 0 15 36 12 49 -4z m-1409 -91 c8 -9 21 -13 36 -9
13 4 31 1 39 -6 8 -6 18 -9 23 -6 5 3 26 -7 46 -23 32 -26 34 -29 14 -29 -69
1 -107 -29 -115 -91 -3 -22 -8 -41 -12 -41 -3 0 -15 19 -26 41 -30 63 -96 96
-128 65 -21 -22 -22 -21 -24 23 -2 33 1 41 19 47 15 4 26 1 35 -12 15 -20 21
-17 26 15 6 38 44 53 67 26z m250 -80 c18 -22 3 -36 -25 -23 -26 11 -30 20
-18 31 11 11 30 8 43 -8z m-1515 -65 c-3 -5 -12 -7 -20 -3 -21 7 -19 13 6 13
11 0 18 -4 14 -10z m3003 -83 c20 -42 7 -87 -28 -94 -16 -3 -37 -14 -46 -24
-15 -16 -64 -27 -64 -14 0 2 11 15 25 29 14 14 23 31 20 38 -3 8 7 18 26 25
29 11 31 15 25 43 -5 26 -3 31 12 28 9 -2 23 -16 30 -31z m-1883 -188 c0 -8
-10 -15 -22 -17 -25 -4 -30 7 -11 26 15 15 33 10 33 -9z m190 1 c3 -5 -1 -10
-9 -10 -8 0 -18 5 -21 10 -3 6 1 10 9 10 8 0 18 -4 21 -10z m1905 -45 c10 -12
10 -15 -4 -15 -9 0 -16 7 -16 15 0 8 2 15 4 15 2 0 9 -7 16 -15z m-1865 -46
c10 -15 -1 -23 -20 -15 -9 3 -13 10 -10 16 8 13 22 13 30 -1z m1055 -9 c0 -5
-4 -10 -10 -10 -5 0 -10 5 -10 10 0 6 5 10 10 10 6 0 10 -4 10 -10z m-760
-242 c0 -21 -6 -31 -23 -37 -13 -5 -29 -16 -36 -25 -7 -9 -22 -16 -33 -16 -18
0 -18 1 -4 16 9 8 16 24 16 34 0 10 9 22 21 25 13 4 20 14 18 28 -2 38 0 41
21 22 11 -10 20 -31 20 -47z m180 -128 c0 -5 -4 -10 -10 -10 -5 0 -10 5 -10
10 0 6 5 10 10 10 6 0 10 -4 10 -10z"/>
<path d="M6250 4390 c0 -5 5 -10 10 -10 6 0 10 5 10 10 0 6 -4 10 -10 10 -5 0
-10 -4 -10 -10z"/>
<path d="M6290 4340 c0 -13 7 -20 20 -20 23 0 26 10 8 28 -18 18 -28 15 -28
-8z"/>
<path d="M6250 4276 c0 -10 9 -16 21 -16 24 0 21 23 -4 28 -10 2 -17 -3 -17
-12z"/>
<path d="M1390 3909 c0 -5 5 -7 10 -4 6 3 10 8 10 11 0 2 -4 4 -10 4 -5 0 -10
-5 -10 -11z"/>
<path d="M2021 8414 c-24 -30 -27 -54 -9 -72 21 -21 54 -14 67 14 14 31 7 60
-19 74 -15 8 -23 5 -39 -16z"/>
<path d="M3140 8378 c0 -21 21 -38 48 -38 19 0 23 5 20 23 -2 17 -11 23 -35
25 -23 2 -33 -1 -33 -10z"/>
<path d="M2350 8330 c0 -5 4 -10 9 -10 6 0 13 5 16 10 3 6 -1 10 -9 10 -9 0
-16 -4 -16 -10z"/>
<path d="M4071 8304 c0 -11 3 -14 6 -6 3 7 2 16 -1 19 -3 4 -6 -2 -5 -13z"/>
<path d="M1813 8294 c-7 -19 5 -43 30 -58 20 -13 50 2 55 26 7 38 -71 67 -85
32z"/>
<path d="M2513 8238 c-18 -22 2 -58 32 -58 29 0 43 25 28 49 -13 21 -47 26
-60 9z"/>
<path d="M4751 8181 c-11 -21 -17 -41 -14 -45 14 -13 53 -5 79 17 23 20 25 26
15 45 -20 37 -57 29 -80 -17z"/>
<path d="M3071 8176 c-15 -28 -8 -46 19 -46 21 0 33 25 25 51 -9 26 -29 24
-44 -5z"/>
<path d="M4910 8160 c0 -5 9 -10 20 -10 11 0 20 5 20 10 0 6 -9 10 -20 10 -11
0 -20 -4 -20 -10z"/>
<path d="M4400 8145 c0 -8 5 -15 10 -15 6 0 10 7 10 15 0 8 -4 15 -10 15 -5 0
-10 -7 -10 -15z"/>
<path d="M3882 8035 c-12 -26 -20 -51 -17 -56 10 -16 58 -10 93 11 28 17 33
25 30 53 -3 30 -6 32 -43 35 -39 3 -41 1 -63 -43z"/>
<path d="M1725 8036 c-23 -35 -16 -60 17 -64 22 -3 29 2 34 22 14 58 -21 88
-51 42z"/>
<path d="M4102 8018 c-19 -19 -14 -28 14 -28 18 0 25 5 22 17 -4 21 -21 26
-36 11z"/>
<path d="M4870 7964 c0 -8 5 -12 10 -9 6 3 10 10 10 16 0 5 -4 9 -10 9 -5 0
-10 -7 -10 -16z"/>
<path d="M3100 7955 c0 -8 2 -15 4 -15 2 0 6 7 10 15 3 8 1 15 -4 15 -6 0 -10
-7 -10 -15z"/>
<path d="M930 7925 c-23 -25 -24 -27 -10 -68 l15 -42 71 -3 c68 -3 73 -1 93
24 24 31 21 56 -12 92 -17 18 -31 22 -77 22 -48 0 -60 -4 -80 -25z"/>
<path d="M4392 7887 c-9 -11 -10 -17 -2 -22 15 -9 23 -1 18 21 -3 15 -4 16
-16 1z"/>
<path d="M2730 7845 c0 -10 7 -15 18 -13 21 4 19 22 -2 26 -10 2 -16 -3 -16
-13z"/>
<path d="M2570 7814 c0 -22 2 -25 15 -14 8 7 15 19 15 26 0 8 -7 14 -15 14
-10 0 -15 -10 -15 -26z"/>
<path d="M4030 7766 c0 -18 17 -29 30 -21 8 5 7 11 -1 21 -15 18 -29 18 -29 0z"/>
<path d="M1760 7745 c1 -26 2 -28 11 -12 8 14 8 22 0 30 -8 8 -11 3 -11 -18z"/>
<path d="M5175 7675 c-20 -50 -21 -57 -7 -81 10 -19 9 -21 -14 -21 -14 0 -31
8 -37 18 -30 48 -96 7 -104 -64 -5 -40 -2 -51 18 -71 13 -13 31 -34 40 -46 13
-20 18 -21 38 -10 14 7 39 10 62 6 50 -8 85 6 109 46 24 39 20 105 -8 126 -9
7 -17 29 -19 49 -2 33 -35 83 -55 83 -4 0 -14 -16 -23 -35z"/>
<path d="M5000 7690 c0 -5 5 -10 10 -10 6 0 10 5 10 10 0 6 -4 10 -10 10 -5 0
-10 -4 -10 -10z"/>
<path d="M2655 7660 c-7 -12 2 -30 16 -30 12 0 12 27 0 35 -5 3 -12 1 -16 -5z"/>
<path d="M4674 7617 c-29 -25 -28 -57 1 -57 24 0 66 46 59 64 -9 22 -28 20
-60 -7z"/>
<path d="M1287 7614 c-16 -16 -6 -35 16 -32 12 2 22 10 22 18 0 16 -26 25 -38
14z"/>
<path d="M2652 7568 c2 -17 11 -24 31 -26 36 -4 37 25 1 38 -35 14 -36 13 -32
-12z"/>
<path d="M4440 7494 c0 -9 5 -14 12 -12 18 6 21 28 4 28 -9 0 -16 -7 -16 -16z"/>
<path d="M973 7414 c-14 -38 53 -108 85 -88 26 17 25 30 -9 68 -33 38 -66 47
-76 20z"/>
<path d="M4205 7410 c-7 -11 2 -30 15 -30 4 0 10 6 13 14 6 16 -19 30 -28 16z"/>
<path d="M4532 7404 c4 -21 22 -23 26 -1 2 10 -3 17 -13 17 -10 0 -15 -6 -13
-16z"/>
<path d="M4052 7368 c-7 -7 -12 -18 -12 -24 0 -19 39 -28 56 -13 13 10 12 14
-2 30 -20 22 -26 23 -42 7z"/>
<path d="M4800 7345 c0 -8 7 -15 15 -15 8 0 15 7 15 15 0 8 -7 15 -15 15 -8 0
-15 -7 -15 -15z"/>
<path d="M5262 7338 c-13 -13 -16 -41 -6 -51 10 -9 44 12 44 27 0 22 -25 37
-38 24z"/>
<path d="M4953 7278 c-58 -30 -61 -45 -10 -53 35 -6 43 -4 58 14 16 19 16 62
0 60 -3 0 -25 -10 -48 -21z"/>
<path d="M1175 7260 c-3 -5 0 -18 7 -30 15 -24 78 -29 78 -6 0 30 -70 60 -85
36z"/>
<path d="M4744 7249 c-11 -19 13 -34 31 -19 13 11 13 15 3 21 -18 12 -26 11
-34 -2z"/>
<path d="M4893 7077 c-22 -10 -31 -27 -15 -27 12 0 48 28 42 33 -3 2 -15 0
-27 -6z"/>
<path d="M5040 7066 c0 -29 11 -39 35 -30 24 10 15 48 -12 52 -19 3 -23 -1
-23 -22z"/>
<path d="M5370 7035 c-7 -8 -10 -19 -6 -22 9 -9 38 8 38 22 -1 16 -18 16 -32
0z"/>
<path d="M1060 6978 c0 -15 5 -30 10 -33 13 -8 13 25 0 45 -8 12 -10 9 -10
-12z"/>
<path d="M1220 6920 c0 -5 4 -10 9 -10 6 0 13 5 16 10 3 6 -1 10 -9 10 -9 0
-16 -4 -16 -10z"/>
<path d="M1080 6895 c-20 -22 -21 -25 -6 -31 23 -9 70 2 103 23 l26 17 -24 7
c-48 14 -75 9 -99 -16z"/>
<path d="M752 6858 c2 -6 10 -14 16 -16 7 -2 10 2 6 12 -7 18 -28 22 -22 4z"/>
<path d="M830 6813 c0 -4 12 -20 27 -35 l27 -28 23 22 c32 30 29 42 -12 35
-19 -3 -37 -1 -40 4 -7 11 -25 12 -25 2z"/>
<path d="M5255 6780 c-4 -6 5 -10 19 -10 14 0 26 5 26 10 0 6 -9 10 -19 10
-11 0 -23 -4 -26 -10z"/>
<path d="M750 6716 c0 -8 5 -18 10 -21 6 -3 10 -19 10 -34 0 -15 7 -36 15 -47
14 -18 14 -18 15 11 0 47 -19 105 -35 105 -8 0 -15 -6 -15 -14z"/>
<path d="M5324 6616 c-9 -24 4 -48 23 -44 12 2 18 12 18 28 0 29 -32 41 -41
16z"/>
<path d="M722 6558 c-33 -16 -25 -49 17 -70 26 -13 38 -14 48 -6 20 16 16 66
-6 78 -24 12 -29 12 -59 -2z"/>
<path d="M5637 6492 c-23 -25 -21 -34 4 -30 12 2 28 13 37 26 13 20 13 22 -5
22 -11 0 -27 -8 -36 -18z"/>
<path d="M415 5853 c-58 -9 -80 -48 -49 -91 12 -17 25 -22 63 -22 52 0 81 20
81 57 0 20 -39 64 -56 62 -5 -1 -22 -4 -39 -6z"/>
<path d="M664 5619 c-10 -17 13 -36 27 -22 12 12 4 33 -11 33 -5 0 -12 -5 -16
-11z"/>
<path d="M6170 5570 c0 -5 7 -10 15 -10 8 0 15 5 15 10 0 6 -7 10 -15 10 -8 0
-15 -4 -15 -10z"/>
<path d="M6050 5525 c0 -8 2 -15 4 -15 2 0 11 -3 20 -6 12 -4 16 0 16 15 0 14
-6 21 -20 21 -11 0 -20 -7 -20 -15z"/>
<path d="M443 5434 c-8 -20 36 -66 61 -62 30 5 30 25 0 53 -31 29 -52 32 -61
9z"/>
<path d="M610 5333 c0 -17 24 -33 48 -33 38 0 24 34 -16 38 -17 2 -32 -1 -32
-5z"/>
<path d="M551 5104 c0 -11 3 -14 6 -6 3 7 2 16 -1 19 -3 4 -6 -2 -5 -13z"/>
<path d="M577 5052 c-22 -25 -21 -32 4 -32 23 0 79 30 79 42 0 16 -67 8 -83
-10z"/>
<path d="M6657 5063 c-4 -3 -7 -24 -7 -45 0 -32 3 -39 17 -36 20 4 27 29 19
64 -6 24 -17 30 -29 17z"/>
<path d="M325 4980 c3 -5 8 -10 11 -10 2 0 4 5 4 10 0 6 -5 10 -11 10 -5 0 -7
-4 -4 -10z"/>
<path d="M421 4960 l-33 -5 21 -19 c20 -18 23 -18 37 -4 23 23 14 34 -25 28z"/>
<path d="M340 4880 c0 -20 30 -83 37 -77 8 9 -18 87 -29 87 -4 0 -8 -5 -8 -10z"/>
<path d="M320 4744 c-17 -19 2 -41 40 -46 22 -3 25 1 28 30 3 30 1 32 -26 32
-16 0 -35 -7 -42 -16z"/>
<path d="M6920 4592 c0 -12 19 -26 26 -19 2 2 -2 10 -11 17 -9 8 -15 8 -15 2z"/>
<path d="M6810 4511 c0 -3 7 -14 14 -23 15 -21 36 -24 36 -5 0 8 3 8 9 -2 8
-12 12 -12 25 2 26 26 19 33 -34 34 -27 0 -50 -2 -50 -6z"/>
<path d="M7102 4426 c1 -10 8 -17 13 -17 15 1 12 24 -3 29 -9 3 -13 -2 -10
-12z"/>
<path d="M7080 4130 c-8 -5 -11 -12 -7 -16 4 -4 15 0 24 9 18 18 8 23 -17 7z"/>
<path d="M6920 4111 c0 -11 4 -22 9 -25 11 -7 23 22 15 35 -9 16 -24 10 -24
-10z"/>
<path d="M505 4099 c-4 -6 -5 -12 -2 -15 7 -7 37 7 37 17 0 13 -27 11 -35 -2z"/>
<path d="M400 4090 c0 -5 11 -10 25 -10 14 0 25 5 25 10 0 6 -11 10 -25 10
-14 0 -25 -4 -25 -10z"/>
<path d="M6960 4075 c-36 -13 -57 -55 -26 -55 21 0 85 43 86 58 0 14 -13 14
-60 -3z"/>
<path d="M1115 4050 c3 -5 11 -10 16 -10 6 0 7 5 4 10 -3 6 -11 10 -16 10 -6
0 -7 -4 -4 -10z"/>
<path d="M6825 4040 c-17 -19 -15 -50 4 -50 13 0 43 49 36 60 -9 15 -20 12
-40 -10z"/>
<path d="M6734 4039 c-10 -17 13 -36 27 -22 12 12 4 33 -11 33 -5 0 -12 -5
-16 -11z"/>
<path d="M900 3994 c-15 -37 -14 -39 30 -39 45 -1 50 10 20 43 -27 29 -38 28
-50 -4z"/>
<path d="M6338 4013 c-3 -4 -4 -28 -4 -53 1 -38 4 -45 21 -45 17 0 20 7 20 50
0 38 -4 50 -17 53 -9 2 -18 -1 -20 -5z"/>
<path d="M1207 3985 c24 -33 48 -42 27 -11 -8 14 -22 27 -30 30 -11 4 -11 0 3
-19z"/>
<path d="M830 3986 c0 -9 5 -16 10 -16 6 0 10 4 10 9 0 6 -4 13 -10 16 -5 3
-10 -1 -10 -9z"/>
<path d="M6730 3956 c0 -7 9 -16 20 -19 15 -4 20 0 20 14 0 12 -7 19 -20 19
-11 0 -20 -6 -20 -14z"/>
<path d="M914 3878 c-4 -7 19 -35 54 -67 65 -61 85 -91 76 -115 -4 -10 -1 -16
9 -16 8 0 20 -7 27 -15 24 -29 40 -18 40 28 0 31 -6 49 -25 69 -14 15 -21 30
-15 33 19 12 10 25 -29 45 -22 10 -41 24 -43 29 -5 15 -86 22 -94 9z"/>
<path d="M1115 3790 c3 -5 13 -10 21 -10 8 0 12 5 9 10 -3 6 -13 10 -21 10 -8
0 -12 -4 -9 -10z"/>
<path d="M1170 3765 c0 -8 5 -15 10 -15 6 0 10 7 10 15 0 8 -4 15 -10 15 -5 0
-10 -7 -10 -15z"/>
<path d="M1236 3753 c-9 -22 17 -48 39 -39 14 5 15 9 5 21 -6 8 -9 19 -5 25 3
5 -2 10 -13 10 -11 0 -23 -8 -26 -17z"/>
<path d="M1112 3628 c-18 -18 -14 -28 8 -28 11 0 20 6 20 14 0 21 -15 27 -28
14z"/>
<path d="M1266 3623 c-12 -12 -5 -23 14 -23 11 0 20 4 20 9 0 11 -26 22 -34
14z"/>
<path d="M1281 3446 c-9 -10 -9 -16 -1 -21 17 -10 37 12 24 25 -8 8 -15 6 -23
-4z"/>
<path d="M1534 3449 c-10 -17 13 -36 27 -22 12 12 4 33 -11 33 -5 0 -12 -5
-16 -11z"/>
<path d="M1047 3416 c-9 -22 15 -86 35 -97 16 -9 18 -5 18 31 0 23 -5 50 -10
61 -12 22 -36 25 -43 5z"/>
<path d="M6680 3400 c11 -20 30 -28 30 -12 0 11 -22 32 -32 32 -5 0 -4 -9 2
-20z"/>
<path d="M6547 3312 c-15 -3 -14 -7 5 -33 23 -31 48 -38 48 -14 0 24 20 17 21
-7 l0 -23 11 23 c6 12 17 22 25 22 8 0 13 7 11 17 -2 13 -14 17 -53 18 -28 0
-58 -1 -68 -3z"/>
<path d="M2467 3199 c-10 -37 -8 -49 8 -49 16 0 18 23 6 54 -7 18 -8 18 -14
-5z"/>
<path d="M6910 3201 c0 -24 18 -37 32 -23 8 8 7 16 -2 27 -17 21 -30 19 -30
-4z"/>
<path d="M2170 3175 c0 -8 5 -15 10 -15 6 0 10 7 10 15 0 8 -4 15 -10 15 -5 0
-10 -7 -10 -15z"/>
<path d="M5812 3149 c2 -6 8 -10 13 -10 5 0 11 4 13 10 2 6 -4 11 -13 11 -9 0
-15 -5 -13 -11z"/>
<path d="M2027 3119 c-26 -15 -47 -63 -47 -108 0 -36 3 -41 27 -47 34 -9 71
11 100 55 21 31 21 35 8 62 -14 26 -43 49 -62 49 -4 0 -16 -5 -26 -11z"/>
<path d="M2452 3095 c-17 -36 -15 -41 8 -20 20 18 27 45 12 45 -5 0 -14 -11
-20 -25z"/>
<path d="M5745 3101 c-3 -6 -17 -11 -30 -11 -23 0 -40 -24 -29 -41 3 -5 22 -9
43 -9 45 0 71 23 55 48 -13 20 -30 26 -39 13z"/>
<path d="M5870 3085 c0 -18 5 -25 19 -25 26 0 36 17 21 35 -19 23 -40 18 -40
-10z"/>
<path d="M2530 3040 c-8 -5 -11 -12 -8 -16 10 -9 38 3 38 16 0 12 -10 13 -30
0z"/>
<path d="M1565 3016 c-16 -12 -17 -16 -6 -30 16 -20 35 -21 50 -3 8 11 7 18
-7 30 -16 15 -21 15 -37 3z"/>
<path d="M2606 3022 c-3 -6 -1 -14 5 -17 15 -10 25 3 12 16 -7 7 -13 7 -17 1z"/>
<path d="M5810 3000 c0 -15 7 -20 25 -20 18 0 25 5 25 20 0 15 -7 20 -25 20
-18 0 -25 -5 -25 -20z"/>
<path d="M5650 2985 c0 -9 6 -12 15 -9 8 4 15 10 15 15 0 5 -7 9 -15 9 -8 0
-15 -7 -15 -15z"/>
<path d="M5202 2888 c5 -15 28 -23 28 -10 0 5 -7 13 -16 16 -10 4 -14 1 -12
-6z"/>
<path d="M6893 2819 c-24 -9 -30 -24 -14 -33 9 -6 48 31 40 38 -2 2 -14 0 -26
-5z"/>
<path d="M6675 2801 c-3 -6 -1 -20 6 -33 11 -21 12 -21 25 -3 8 11 13 24 11
30 -5 14 -34 18 -42 6z"/>
<path d="M6764 2755 c-10 -8 -31 -15 -46 -15 -34 0 -56 -34 -37 -56 16 -19 35
-18 58 5 10 10 28 22 39 25 22 7 36 32 26 47 -7 13 -17 11 -40 -6z"/>
<path d="M5402 2749 c2 -7 10 -15 17 -17 8 -3 12 1 9 9 -2 7 -10 15 -17 17 -8
3 -12 -1 -9 -9z"/>
<path d="M6562 2707 c-25 -26 -28 -50 -9 -65 20 -17 73 53 57 73 -17 20 -23
19 -48 -8z"/>
<path d="M6452 2708 c-20 -20 -14 -38 13 -38 27 0 33 21 12 39 -10 8 -17 7
-25 -1z"/>
<path d="M2636 2681 c-9 -13 3 -39 21 -45 20 -8 33 1 33 24 0 24 -42 41 -54
21z"/>
<path d="M4565 2611 c-3 -5 -1 -12 5 -16 5 -3 10 1 10 9 0 18 -6 21 -15 7z"/>
<path d="M6437 2603 c-8 -14 6 -31 28 -35 14 -2 20 3 20 17 0 21 -38 34 -48
18z"/>
<path d="M6540 2581 c0 -6 5 -13 10 -16 6 -3 10 1 10 9 0 9 -4 16 -10 16 -5 0
-10 -4 -10 -9z"/>
<path d="M2590 2564 c0 -9 7 -14 17 -12 25 5 28 28 4 28 -12 0 -21 -6 -21 -16z"/>
<path d="M4612 2563 c2 -10 10 -18 18 -18 22 0 18 29 -3 33 -14 3 -18 -1 -15
-15z"/>
<path d="M4498 2554 c-34 -18 -37 -44 -5 -44 33 0 62 23 54 44 -8 19 -14 20
-49 0z"/>
<path d="M3317 2505 c-8 -18 11 -31 25 -17 11 11 3 32 -12 32 -4 0 -10 -7 -13
-15z"/>
<path d="M4580 2490 c0 -18 3 -19 20 -10 22 12 18 30 -6 30 -8 0 -14 -9 -14
-20z"/>
<path d="M3605 2478 c-7 -18 3 -42 35 -90 51 -77 65 -31 17 56 -24 43 -44 56
-52 34z"/>
<path d="M4455 2470 c-3 -5 -1 -10 4 -10 6 0 11 5 11 10 0 6 -2 10 -4 10 -3 0
-8 -4 -11 -10z"/>
<path d="M2397 2432 c-63 -66 1 -136 78 -86 29 19 31 43 10 84 -20 39 -53 39
-88 2z"/>
<path d="M5420 2450 c-11 -7 -12 -12 -3 -21 8 -8 14 -6 22 10 12 22 5 27 -19
11z"/>
<path d="M3165 2440 c-9 -15 4 -50 19 -50 20 0 39 27 32 45 -6 17 -42 20 -51
5z"/>
<path d="M5262 2409 c1 -13 8 -23 13 -21 15 3 12 35 -3 40 -9 3 -13 -3 -10
-19z"/>
<path d="M3106 2391 c-4 -7 -5 -15 -2 -18 9 -9 19 4 14 18 -4 11 -6 11 -12 0z"/>
<path d="M5320 2390 c-8 -5 -23 -11 -32 -14 -22 -7 -24 -44 -3 -52 16 -6 89
59 78 69 -8 9 -24 8 -43 -3z"/>
<path d="M5180 2335 c-13 -16 -10 -47 6 -52 10 -3 34 37 34 57 0 15 -26 12
-40 -5z"/>
<path d="M5090 2309 c0 -24 23 -21 28 4 2 10 -3 17 -12 17 -10 0 -16 -9 -16
-21z"/>
<path d="M3261 2288 c-16 -45 -20 -108 -6 -108 8 0 15 19 19 48 4 26 9 55 12
65 8 25 -15 21 -25 -5z"/>
<path d="M2390 2283 c0 -5 6 -18 14 -29 17 -22 35 -11 20 13 -12 19 -34 29
-34 16z"/>
<path d="M2628 2263 c-10 -3 -18 -13 -18 -23 0 -11 -10 -20 -24 -24 -14 -3
-39 -18 -57 -33 -18 -16 -34 -23 -36 -17 -2 6 -10 20 -18 30 -13 17 -14 17
-15 2 0 -9 5 -20 11 -23 13 -9 -19 -34 -44 -35 -10 0 -20 7 -24 15 -3 9 -18
22 -34 31 -16 8 -29 20 -29 27 0 6 -14 20 -30 29 -24 14 -30 14 -30 3 0 -8 12
-22 27 -32 64 -43 126 -127 126 -169 0 -8 4 -14 9 -14 10 0 10 3 -1 33 -12 31
-4 40 21 26 44 -24 42 -93 -2 -82 -11 3 -20 1 -20 -4 0 -18 11 -21 40 -13 24
7 29 5 34 -13 3 -12 1 -26 -4 -31 -10 -10 38 -58 51 -50 5 3 9 13 9 24 0 28
49 36 67 10 8 -11 20 -20 27 -20 16 0 74 28 81 39 2 5 22 5 43 1 32 -6 43 -3
65 16 15 13 27 28 27 34 0 10 -34 15 -80 12 -14 -1 -39 0 -57 3 -30 5 -31 8
-23 31 6 14 10 38 10 53 0 39 -37 119 -61 131 -11 6 -17 15 -14 20 7 11 -6 17
-27 13z"/>
<path d="M5097 2244 c-11 -11 3 -24 24 -24 12 0 19 5 17 13 -5 14 -31 21 -41
11z"/>
<path d="M5175 2230 c3 -5 8 -10 11 -10 2 0 4 5 4 10 0 6 -5 10 -11 10 -5 0
-7 -4 -4 -10z"/>
<path d="M2425 1900 c-18 -19 -17 -20 8 -20 17 0 27 5 27 14 0 24 -16 27 -35
6z"/>
<path d="M2540 1854 c0 -9 5 -14 12 -12 18 6 21 28 4 28 -9 0 -16 -7 -16 -16z"/>
</g>
</svg>
